<svg width="139" height="40" viewBox="0 0 139 40" fill="none" xmlns="http://www.w3.org/2000/svg">
<path d="M133.861 40H5.38889C2.56378 40 0.25 37.7488 0.25 35V5.00001C0.25 2.25126 2.56378 6.83814e-06 5.38889 6.83814e-06H133.861C136.686 6.83814e-06 139 2.25126 139 5.00001V35C139 37.7488 136.686 40 133.861 40Z" fill="black"/>
<path d="M133.861 0.801256C136.24 0.801256 138.176 2.68501 138.176 5.00001V35C138.176 37.315 136.24 39.1988 133.861 39.1988H5.38889C3.00958 39.1988 1.07351 37.315 1.07351 35V5.00001C1.07351 2.68501 3.00958 0.801256 5.38889 0.801256H133.861ZM133.861 6.83814e-06H5.38889C2.56378 6.83814e-06 0.25 2.25126 0.25 5.00001V35C0.25 37.7488 2.56378 40 5.38889 40H133.861C136.686 40 139 37.7488 139 35V5.00001C139 2.25126 136.686 6.83814e-06 133.861 6.83814e-06Z" fill="#A6A6A6"/>
<path d="M48.9845 10.2437C48.9845 11.0787 48.7276 11.7475 48.2214 12.2462C47.6394 12.8375 46.8814 13.135 45.9526 13.135C45.0648 13.135 44.3068 12.8325 43.685 12.2362C43.0619 11.6312 42.751 10.8887 42.751 9.99996C42.751 9.11121 43.0619 8.36871 43.685 7.76871C44.3068 7.16746 45.0648 6.86496 45.9526 6.86496C46.3945 6.86496 46.8159 6.95371 47.218 7.11871C47.6188 7.28496 47.9452 7.50996 48.1816 7.78746L47.6445 8.31496C47.2321 7.84121 46.6707 7.60746 45.9526 7.60746C45.3051 7.60746 44.7436 7.82746 44.267 8.27121C43.7955 8.71621 43.5591 9.29246 43.5591 9.99996C43.5591 10.7075 43.7955 11.2887 44.267 11.7337C44.7436 12.1725 45.3051 12.3975 45.9526 12.3975C46.6399 12.3975 47.218 12.1725 47.6741 11.7287C47.9747 11.435 48.1456 11.03 48.1906 10.5125H45.9526V9.78996H48.9383C48.9742 9.94621 48.9845 10.0975 48.9845 10.2437Z" fill="white" stroke="white" stroke-width="0.2" stroke-miterlimit="10"/>
<path d="M53.7208 7.73848H50.9162V9.63848H53.4445V10.361H50.9162V12.261H53.7208V12.9972H50.1223V7.00223H53.7208V7.73848Z" fill="white" stroke="white" stroke-width="0.2" stroke-miterlimit="10"/>
<path d="M57.0642 12.9972H56.2703V7.73848H54.55V7.00223H58.7858V7.73848H57.0642V12.9972Z" fill="white" stroke="white" stroke-width="0.2" stroke-miterlimit="10"/>
<path d="M61.851 12.9972V7.00223H62.6437V12.9972H61.851Z" fill="white" stroke="white" stroke-width="0.2" stroke-miterlimit="10"/>
<path d="M66.1579 12.9972H65.3703V7.73848H63.6437V7.00223H67.8845V7.73848H66.1579V12.9972Z" fill="white" stroke="white" stroke-width="0.2" stroke-miterlimit="10"/>
<path d="M75.9033 12.2262C75.2956 12.8325 74.5428 13.135 73.6448 13.135C72.7416 13.135 71.9888 12.8325 71.3811 12.2262C70.7747 11.6212 70.4728 10.8787 70.4728 9.99996C70.4728 9.12121 70.7747 8.37871 71.3811 7.77371C71.9888 7.16746 72.7416 6.86496 73.6448 6.86496C74.5376 6.86496 75.2905 7.16746 75.8982 7.77871C76.5097 8.38871 76.8116 9.12621 76.8116 9.99996C76.8116 10.8787 76.5097 11.6212 75.9033 12.2262ZM71.9682 11.7237C72.4256 12.1725 72.9818 12.3975 73.6448 12.3975C74.3025 12.3975 74.864 12.1725 75.3162 11.7237C75.7723 11.275 76.0035 10.6987 76.0035 9.99996C76.0035 9.30121 75.7723 8.72496 75.3162 8.27621C74.864 7.82746 74.3025 7.60246 73.6448 7.60246C72.9818 7.60246 72.4256 7.82746 71.9682 8.27621C71.5121 8.72496 71.2809 9.30121 71.2809 9.99996C71.2809 10.6987 71.5121 11.275 71.9682 11.7237Z" fill="white" stroke="white" stroke-width="0.2" stroke-miterlimit="10"/>
<path d="M77.9258 12.9972V7.00223H78.8893L81.8853 11.6647H81.92L81.8853 10.5122V7.00223H82.678V12.9972H81.8506L78.7133 8.10473H78.6786L78.7133 9.26223V12.9972H77.9258Z" fill="white" stroke="white" stroke-width="0.2" stroke-miterlimit="10"/>
<path d="M70.2772 21.7526C67.8632 21.7526 65.8912 23.5401 65.8912 26.0063C65.8912 28.4525 67.8632 30.2588 70.2772 30.2588C72.6963 30.2588 74.6684 28.4525 74.6684 26.0063C74.6684 23.5401 72.6963 21.7526 70.2772 21.7526ZM70.2772 28.5838C68.9526 28.5838 67.8131 27.52 67.8131 26.0063C67.8131 24.4725 68.9526 23.4275 70.2772 23.4275C71.6017 23.4275 72.7464 24.4725 72.7464 26.0063C72.7464 27.52 71.6017 28.5838 70.2772 28.5838ZM60.7073 21.7526C58.2882 21.7526 56.3213 23.5401 56.3213 26.0063C56.3213 28.4525 58.2882 30.2588 60.7073 30.2588C63.1251 30.2588 65.0933 28.4525 65.0933 26.0063C65.0933 23.5401 63.1251 21.7526 60.7073 21.7526ZM60.7073 28.5838C59.3815 28.5838 58.2381 27.52 58.2381 26.0063C58.2381 24.4725 59.3815 23.4275 60.7073 23.4275C62.0318 23.4275 63.1714 24.4725 63.1714 26.0063C63.1714 27.52 62.0318 28.5838 60.7073 28.5838ZM49.3195 23.0563V24.8638H53.7557C53.6259 25.8738 53.279 26.6163 52.7472 27.1338C52.0997 27.7588 51.0912 28.4525 49.3195 28.4525C46.5895 28.4525 44.4517 26.3088 44.4517 23.6526C44.4517 20.9963 46.5895 18.8526 49.3195 18.8526C50.7957 18.8526 51.8697 19.4138 52.6624 20.1413L53.9715 18.8676C52.8628 17.8376 51.3879 17.0463 49.3195 17.0463C45.5758 17.0463 42.4296 20.0101 42.4296 23.6526C42.4296 27.295 45.5758 30.2588 49.3195 30.2588C51.343 30.2588 52.8628 29.6138 54.0576 28.4038C55.2819 27.2125 55.6635 25.5375 55.6635 24.185C55.6635 23.765 55.6275 23.3788 55.5633 23.0563H49.3195ZM95.8856 24.4575C95.5245 23.5063 94.4107 21.7526 92.1419 21.7526C89.8936 21.7526 88.0218 23.4763 88.0218 26.0063C88.0218 28.3888 89.8743 30.2588 92.3577 30.2588C94.3657 30.2588 95.5245 29.0675 96.0012 28.3738L94.5109 27.4075C94.0137 28.115 93.3367 28.5838 92.3577 28.5838C91.3852 28.5838 90.6876 28.15 90.2405 27.295L96.0873 24.9413L95.8856 24.4575ZM89.9245 25.8738C89.8743 24.2338 91.2336 23.3938 92.2074 23.3938C92.9705 23.3938 93.618 23.765 93.8339 24.2963L89.9245 25.8738ZM85.1723 30H87.0942V17.5001H85.1723V30ZM82.0247 22.7H81.9605C81.5288 22.2025 80.7053 21.7526 79.6621 21.7526C77.4729 21.7526 75.4713 23.6225 75.4713 26.02C75.4713 28.4038 77.4729 30.2588 79.6621 30.2588C80.7053 30.2588 81.5288 29.805 81.9605 29.2925H82.0247V29.9025C82.0247 31.5288 81.1318 32.4025 79.6916 32.4025C78.5174 32.4025 77.789 31.5775 77.4883 30.8838L75.8169 31.5625C76.2987 32.69 77.5744 34.0775 79.6916 34.0775C81.945 34.0775 83.8464 32.7875 83.8464 29.6488V22.0113H82.0247V22.7ZM79.8265 28.5838C78.502 28.5838 77.3933 27.505 77.3933 26.02C77.3933 24.5213 78.502 23.4275 79.8265 23.4275C81.1318 23.4275 82.1609 24.5213 82.1609 26.02C82.1609 27.505 81.1318 28.5838 79.8265 28.5838ZM104.884 17.5001H100.287V30H102.204V25.2638H104.884C107.013 25.2638 109.1 23.765 109.1 21.3813C109.1 18.9988 107.007 17.5001 104.884 17.5001ZM104.934 23.525H102.204V19.2388H104.934C106.365 19.2388 107.182 20.3951 107.182 21.3813C107.182 22.3488 106.365 23.525 104.934 23.525ZM116.783 21.7288C115.398 21.7288 113.958 22.3238 113.365 23.6425L115.066 24.3363C115.433 23.6425 116.106 23.4175 116.818 23.4175C117.812 23.4175 118.82 23.9988 118.836 25.025V25.1563C118.489 24.9613 117.746 24.6725 116.833 24.6725C115.001 24.6725 113.134 25.6538 113.134 27.485C113.134 29.16 114.635 30.2388 116.322 30.2388C117.611 30.2388 118.323 29.6725 118.77 29.0138H118.836V29.98H120.687V25.185C120.687 22.9688 118.986 21.7288 116.783 21.7288ZM116.552 28.5788C115.925 28.5788 115.051 28.2763 115.051 27.52C115.051 26.5525 116.14 26.1813 117.083 26.1813C117.928 26.1813 118.323 26.3625 118.836 26.6013C118.686 27.7588 117.662 28.5788 116.552 28.5788ZM127.432 22.0025L125.229 27.4213H125.163L122.885 22.0025H120.818L124.241 29.575L122.288 33.7888H124.291L129.565 22.0025H127.432ZM110.154 30H112.076V17.5001H110.154V30Z" fill="white"/>
<path d="M10.9753 7.53878C10.6734 7.84628 10.4987 8.32503 10.4987 8.94503V31.06C10.4987 31.68 10.6734 32.1588 10.9753 32.4663L11.0498 32.5338L23.7865 20.1463V19.8538L11.0498 7.46628L10.9753 7.53878Z" fill="url(#paint0_linear_18_2086)"/>
<path d="M28.0266 24.2773L23.7857 20.1461V19.8536L28.0317 15.7223L28.1268 15.7761L33.1552 18.5598C34.5902 19.3498 34.5902 20.6498 33.1552 21.4448L28.1268 24.2236L28.0266 24.2773Z" fill="url(#paint1_linear_18_2086)"/>
<path d="M28.1266 24.2238L23.7855 20.0001L10.9742 32.4663C11.4509 32.9538 12.2281 33.0126 13.112 32.5251L28.1266 24.2238Z" fill="url(#paint2_linear_18_2086)"/>
<path d="M28.1266 15.7763L13.112 7.47501C12.2281 6.9925 11.4509 7.05125 10.9742 7.53875L23.7855 20L28.1266 15.7763Z" fill="url(#paint3_linear_18_2086)"/>
<defs>
<linearGradient id="paint0_linear_18_2086" x1="22.6557" y1="31.2903" x2="5.87956" y2="14.0482" gradientUnits="userSpaceOnUse">
<stop stop-color="#00A0FF"/>
<stop offset="0.0066" stop-color="#00A1FF"/>
<stop offset="0.2601" stop-color="#00BEFF"/>
<stop offset="0.5122" stop-color="#00D2FF"/>
<stop offset="0.7604" stop-color="#00DFFF"/>
<stop offset="1" stop-color="#00E3FF"/>
</linearGradient>
<linearGradient id="paint1_linear_18_2086" x1="35.0238" y1="19.9984" x2="10.1548" y2="19.9984" gradientUnits="userSpaceOnUse">
<stop stop-color="#FFE000"/>
<stop offset="0.4087" stop-color="#FFBD00"/>
<stop offset="0.7754" stop-color="#FFA500"/>
<stop offset="1" stop-color="#FF9C00"/>
</linearGradient>
<linearGradient id="paint2_linear_18_2086" x1="25.766" y1="17.704" x2="3.01626" y2="-5.67773" gradientUnits="userSpaceOnUse">
<stop stop-color="#FF3A44"/>
<stop offset="1" stop-color="#C31162"/>
</linearGradient>
<linearGradient id="paint3_linear_18_2086" x1="7.74939" y1="39.8238" x2="17.9082" y2="29.3829" gradientUnits="userSpaceOnUse">
<stop stop-color="#32A071"/>
<stop offset="0.0685" stop-color="#2DA771"/>
<stop offset="0.4762" stop-color="#15CF74"/>
<stop offset="0.8009" stop-color="#06E775"/>
<stop offset="1" stop-color="#00F076"/>
</linearGradient>
</defs>
</svg>
