<svg id="Capa_1" enable-background="new 0 0 512 512" height="64px" viewBox="0 0 512 512" width="64px" xmlns="http://www.w3.org/2000/svg"><g><path d="m506.8 402.959c-1.806 16.472-15.148 29.341-31.682 30.499-1.368.097-2.726.193-4.085.281-10.081.684-17.919 9.056-17.919 19.163v38.204c0 12.852-14.71 20.145-24.932 12.361-18.655-14.21-43.473-35.346-58.7-57.263-3.603-5.19-9.555-8.214-15.876-8.179-46.883.237-93.766-1.271-140.649-4.567-13.071-.912-24.169-9.126-29.113-20.68-1.315-3.033-2.192-6.312-2.569-9.739-6.943-63.425-6.943-126.859 0-190.294 1.806-16.455 15.157-29.263 31.664-30.42 69.842-4.901 139.676-5.882 209.51-2.946 17.55.728 35.11 1.709 52.66 2.946 16.516 1.157 29.876 13.965 31.682 30.42 6.944 63.407 6.944 126.806.009 190.214z" fill="#78d0b1"/><path d="m199.16 211.001c-7.111 64.942-7.111 129.891 0 194.82.385 3.515 1.284 6.867 2.629 9.977 3.44 8.043 9.794 14.505 17.716 18.108-2.183-.142-4.366-.291-6.55-.446-13.072-.912-24.171-9.125-29.112-20.683-1.318-3.035-2.197-6.313-2.569-9.74-6.948-63.421-6.948-126.857 0-190.292 1.805-16.452 15.154-29.261 31.66-30.416 3.224-.223 6.448-.446 9.679-.649-12.571 4.325-21.946 15.586-23.453 29.321z" fill="#66b49d"/><g><path d="m305.554 379.278c.02 10.337 13.59 18.706 23.927 18.706h80.006c8.318 0 15.062-6.744 15.062-15.067 0-4.159-1.681-7.93-4.407-10.655s-6.496-4.412-10.655-4.412h5.408c8.318 0 15.067-6.739 15.067-15.067 0-4.164-1.681-7.925-4.417-10.655-2.721-2.726-6.487-4.407-10.651-4.407h5.413c8.216 0 14.897-6.584 15.057-14.766.17-8.454-6.943-15.368-15.398-15.368h-5.073c8.318 0 15.067-6.744 15.067-15.072 0-4.164-1.681-7.925-4.417-10.655-2.721-2.726-6.487-4.407-10.651-4.407h-42.376c-.06-.095-.079-.124-.139-.219l16.525-35.202c4.689-9.98.394-21.87-9.586-26.558-2.74-1.288-5.626-1.895-8.469-1.895-7.502 0-14.688 4.247-18.089 11.486l-7.065 15.053c-4.174 8.887-10.859 16.399-19.324 21.364-5.588 3.275-10.242 8.27-13.085 14.664-1.939 4.363-2.808 8.96-2.726 13.473z" fill="#ffddce"/><g fill="#ffcbbe"><path d="m385.494 219.986c-.68-.073-1.36-.107-2.041-.107-7.502 0-14.688 4.247-18.089 11.486l-7.065 15.053c-4.174 8.887-10.859 16.399-19.324 21.364-5.588 3.275-25.689 8.362-26.432 46.441-.058 2.974-1.132 5.719-1.919 8.459l-.063-33.064c-.083-4.514.787-9.11 2.726-13.473 2.842-6.394 7.497-11.389 13.085-14.664 8.464-4.966 15.15-12.477 19.324-21.364l7.065-15.053c3.401-7.24 10.587-11.486 18.089-11.486 2.842 0 5.729.607 8.469 1.895 2.404 1.127 4.479 2.677 6.175 4.513z"/><path d="m424.549 382.917c0 8.323-6.744 15.067-15.062 15.067h-82.095c-8.688 0-16.743-4.198-21.729-11.098h103.823c6.36 0 11.797-3.94 14.008-9.518.005.005.005.015.015.019 0 0-.005.005 0 .005.671 1.711 1.04 3.577 1.04 5.525z"/><path d="m428.898 347.233c.68 1.718 1.058 3.59 1.058 5.548 0 8.327-6.743 15.07-15.064 15.07h-5.773c-3.065 0-5.549-2.484-5.549-5.549 0-3.065 2.484-5.549 5.549-5.549h5.773c6.362.001 11.797-3.942 14.006-9.52z"/><path d="m434.311 317.1c.68 1.718 1.058 3.59 1.058 5.548 0 8.327-6.743 15.07-15.064 15.07h-5.773c-3.065 0-5.549-2.484-5.549-5.549 0-3.065 2.484-5.549 5.549-5.549h5.773c6.361 0 11.797-3.943 14.006-9.52z"/><path d="m428.905 286.966c.68 1.718 1.058 3.59 1.058 5.548 0 8.327-6.743 15.07-15.064 15.07h-5.773c-3.065 0-5.549-2.484-5.549-5.549 0-3.065 2.484-5.549 5.549-5.549h5.773c6.361.001 11.797-3.943 14.006-9.52z"/></g><path d="m263.699 289.618v93.958c0 6.516 5.283 11.799 11.799 11.799h23.265c6.516 0 11.799-5.283 11.799-11.799v-93.958c0-6.516-5.283-11.799-11.799-11.799h-23.265c-6.516 0-11.799 5.282-11.799 11.799z" fill="#f1f4f6"/><path d="m263.696 353.981v29.598c0 6.516 5.286 11.796 11.802 11.796h23.264c6.516 0 11.796-5.28 11.796-11.796v-29.598c0 6.516-5.28 11.803-11.796 11.803h-23.264c-6.516-.001-11.802-5.287-11.802-11.803z" fill="#d0e2e7"/></g><path d="m5.004 221.907c1.736 15.839 14.566 28.214 30.465 29.327 1.315.093 2.622.185 3.928.27 9.694.657 17.23 8.708 17.23 18.427v36.736c0 12.358 14.145 19.371 23.974 11.886 17.938-13.664 41.802-33.988 56.445-55.062 3.465-4.99 9.188-7.899 15.266-7.865 45.082.228 90.163-1.222 135.245-4.392 12.568-.877 23.24-8.775 27.995-19.886 1.264-2.917 2.107-6.069 2.47-9.365 6.676-60.988 6.676-121.985 0-182.982-1.737-15.822-14.575-28.138-30.448-29.251-67.16-4.711-134.31-5.655-201.461-2.832-16.876.7-33.761 1.644-50.637 2.832-15.881 1.113-28.727 13.429-30.464 29.252-6.676 60.971-6.676 121.934-.008 182.905z" fill="#f9da41"/><path d="m22.209 37.325c-6.837 62.447-6.837 124.9 0 187.334.371 3.38 1.235 6.603 2.528 9.593 3.308 7.734 9.418 13.948 17.035 17.412-2.099-.136-4.199-.28-6.298-.429-12.57-.877-23.242-8.774-27.993-19.888-1.267-2.918-2.112-6.071-2.47-9.366-6.681-60.984-6.681-121.982 0-182.98 1.735-15.82 14.572-28.136 30.444-29.248 3.1-.214 6.201-.429 9.307-.624-12.089 4.161-21.104 14.989-22.553 28.196z" fill="#edc932"/><g fill="#21386b"><path d="m215.692 125.812c9.482 0 17.195-12.817 17.195-28.572s-7.713-28.572-17.195-28.572c-9.481 0-17.194 12.817-17.194 28.572s7.713 28.572 17.194 28.572z"/><path d="m107.339 125.812c9.482 0 17.195-12.817 17.195-28.572s-7.713-28.572-17.195-28.572c-9.481 0-17.194 12.817-17.194 28.572s7.713 28.572 17.194 28.572z"/><path d="m220.739 146.815c-3.936-1.655-8.464.186-10.122 4.118-8.349 19.804-27.623 32.6-49.102 32.6-21.48 0-40.754-12.796-49.103-32.6-1.657-3.932-6.191-5.773-10.122-4.118-3.932 1.658-5.776 6.189-4.118 10.121 10.77 25.544 35.633 42.05 63.342 42.05 27.708 0 52.571-16.506 63.341-42.05 1.66-3.932-.184-8.463-4.116-10.121z"/></g></g></svg>