<?xml version="1.0" encoding="utf-8"?>
<!-- Generator: Adobe Illustrator 25.4.1, SVG Export Plug-In . SVG Version: 6.00 Build 0)  -->
<svg height="64px" width="64px" version="1.1" id="Icons" xmlns="http://www.w3.org/2000/svg" xmlns:xlink="http://www.w3.org/1999/xlink" x="0px" y="0px"
	 viewBox="0 0 512 477.1" style="enable-background:new 0 0 512 477.1;" xml:space="preserve">
<style type="text/css">
	.st0{fill:#D6AA49;}
	.st1{fill:#2783EC;}
	.st2{fill:#439AF6;}
	.st3{fill:#F0F2F5;}
	.st4{fill:#FCCB55;}
	.st5{fill:#FFD880;}
	.st6{fill:#1F61A3;}
	.st7{fill:#FFE7B3;}
</style>
<path class="st0" d="M358.4,341.5h51.2v93.9h-51.2V341.5z"/>
<path class="st1" d="M52.7,349.9h-1.5c-24-0.9-42.9-20.7-42.7-44.7V25.6c0-9.4,7.7-17,17.1-17.1h120.9c4.5,0,8.9,1.8,12.1,5
	l24.1,24.1c3.2,3.2,7.6,5,12.1,5h103.9c9.4,0,17,7.7,17.1,17.1v34.1l-221.9,256L52.7,349.9z"/>
<path class="st2" d="M401.1,110.9v238.9H52.7c23-0.8,41.2-19.7,41.1-42.7V110.9c0-9.4,7.7-17,17.1-17.1H384
	C393.4,93.9,401,101.5,401.1,110.9z"/>
<path class="st3" d="M136.5,128h102.4c4.7,0,8.5,3.8,8.5,8.5v51.2c0,4.7-3.8,8.5-8.5,8.5H136.5c-4.7,0-8.5-3.8-8.5-8.5v-51.2
	C128,131.8,131.8,128,136.5,128z"/>
<path class="st4" d="M349.9,418.3h68.3c18.9,0,34.1,15.3,34.1,34.1v8.5c0,4.7-3.8,8.5-8.5,8.5H324.3c-4.7,0-8.5-3.8-8.5-8.5v-8.5
	C315.7,433.5,331,418.3,349.9,418.3z"/>
<path class="st5" d="M324.3,315.9c-9.4-4.1-17.9-10.2-24.7-17.9c-22.4-22.4-35-52.8-35-84.5c0-4.7,3.8-8.5,8.5-8.5h221.9
	c4.7,0,8.5,3.8,8.5,8.5c0,31.7-12.6,62.1-35,84.5c-6.9,7.7-15.3,13.8-24.7,17.9H324.3z"/>
<path class="st4" d="M324.3,179.3h119.5c4.7,0,8.5,3.8,8.5,8.5v110.9c0,37.7-30.6,68.3-68.3,68.3s-68.3-30.6-68.3-68.3V187.9
	C315.7,183.2,319.6,179.3,324.3,179.3z"/>
<path class="st6" d="M230.4,238.9h-93.9c-4.7,0-8.5-3.8-8.5-8.5s3.8-8.5,8.5-8.5h93.9c4.7,0,8.5,3.8,8.5,8.5
	S235.1,238.9,230.4,238.9z"/>
<path class="st6" d="M196.3,273.1h-59.7c-4.7,0-8.5-3.8-8.5-8.5s3.8-8.5,8.5-8.5h59.7c4.7,0,8.5,3.8,8.5,8.5S201,273.1,196.3,273.1z
	"/>
<g>
	<path class="st7" d="M349.9,230.5c-4.7,0-8.5-3.8-8.5-8.5v-8.5c0-4.7,3.8-8.5,8.5-8.5c4.7,0,8.5,3.8,8.5,8.5v8.5
		C358.4,226.7,354.6,230.5,349.9,230.5z"/>
	<path class="st7" d="M384,341.5c-23.6,0-42.6-19.1-42.7-42.7v-42.7c0-4.7,3.8-8.5,8.5-8.5c4.7,0,8.5,3.8,8.5,8.5v42.7
		c0,14.1,11.5,25.6,25.6,25.6c4.7,0,8.5,3.8,8.5,8.5S388.7,341.5,384,341.5z"/>
</g>
</svg>
