<svg id="Capa_1" enable-background="new 0 0 512 512" height="64px" viewBox="0 0 512 512" width="64px" xmlns="http://www.w3.org/2000/svg"><g><g><g><g><path d="m215.008 226.584c5.882-13.617 9.148-28.628 9.148-44.404 0-61.899-50.179-112.078-112.078-112.078s-112.078 50.179-112.078 112.077 50.179 112.078 112.078 112.078c14.765 0 28.86-2.861 41.77-8.049 11.614-27.102 33.709-48.686 61.16-59.624z" fill="#fd4755"/><g><path d="m43.176 182.179c0-54.513 38.922-99.929 90.49-109.992-6.987-1.363-14.202-2.086-21.588-2.086-61.899.001-112.078 50.179-112.078 112.078s50.179 112.078 112.078 112.078c7.386 0 14.601-.722 21.588-2.086-51.568-10.063-90.49-55.478-90.49-109.992z" fill="#fb2b3a"/></g><g><path d="m147.691 245.195c-4.143 0-7.5-3.358-7.5-7.5 0-15.502-12.611-28.114-28.113-28.114s-28.113 12.612-28.113 28.114c0 4.142-3.357 7.5-7.5 7.5s-7.5-3.358-7.5-7.5c0-23.773 19.341-43.114 43.113-43.114s43.113 19.341 43.113 43.114c0 4.142-3.357 7.5-7.5 7.5z" fill="#c41926"/></g><g><g><path d="m82.176 165.588h-24.626c-4.143 0-7.5-3.358-7.5-7.5s3.357-7.5 7.5-7.5h24.626c4.143 0 7.5 3.358 7.5 7.5s-3.358 7.5-7.5 7.5z" fill="#c41926"/></g><g><path d="m166.605 165.588h-24.625c-4.143 0-7.5-3.358-7.5-7.5s3.357-7.5 7.5-7.5h24.625c4.143 0 7.5 3.358 7.5 7.5s-3.357 7.5-7.5 7.5z" fill="#c41926"/></g></g></g></g></g><g><path d="m297.769 225.792c-12.909-5.188-27.004-8.049-41.769-8.049-61.899 0-112.078 50.179-112.078 112.078s50.179 112.077 112.078 112.077 112.078-50.179 112.078-112.078c0-15.776-3.266-30.788-9.148-44.404-27.451-10.938-49.546-32.522-61.161-59.624z" fill="#fed402"/><g><path d="m186.978 329.821c0-54.535 38.952-99.964 90.55-110.004-6.968-1.356-14.163-2.074-21.528-2.074-61.899 0-112.078 50.179-112.078 112.078s50.179 112.078 112.078 112.078c7.364 0 14.56-.718 21.528-2.074-51.598-10.04-90.55-55.47-90.55-110.004z" fill="#fac600"/></g><g><g><path d="m224.576 323.704c-4.143 0-7.5-3.358-7.5-7.5v-21.997c0-4.142 3.357-7.5 7.5-7.5s7.5 3.358 7.5 7.5v21.997c0 4.142-3.357 7.5-7.5 7.5z" fill="#fb8801"/></g><g><path d="m287.424 323.704c-4.143 0-7.5-3.358-7.5-7.5v-21.997c0-4.142 3.357-7.5 7.5-7.5s7.5 3.358 7.5 7.5v21.997c0 4.142-3.358 7.5-7.5 7.5z" fill="#fb8801"/></g></g><g><path d="m293.185 372.934h-74.369c-4.143 0-7.5-3.358-7.5-7.5s3.357-7.5 7.5-7.5h74.369c4.143 0 7.5 3.358 7.5 7.5s-3.358 7.5-7.5 7.5z" fill="#fb8801"/></g></g><g><g><circle cx="399.922" cy="182.179" fill="#97d729" r="112.078"/></g><g><path d="m330.597 182.179c0-54.588 39.028-100.053 90.702-110.033-6.921-1.337-14.065-2.045-21.376-2.045-61.899 0-112.078 50.179-112.078 112.078s50.179 112.078 112.078 112.078c7.311 0 14.456-.708 21.376-2.045-51.674-9.98-90.702-55.445-90.702-110.033z" fill="#8bc727"/></g><g><path d="m399.922 245.195c-23.772 0-43.113-19.341-43.113-43.114 0-4.142 3.357-7.5 7.5-7.5s7.5 3.358 7.5 7.5c0 15.502 12.611 28.114 28.113 28.114s28.113-12.612 28.113-28.114c0-4.142 3.357-7.5 7.5-7.5s7.5 3.358 7.5 7.5c0 23.773-19.341 43.114-43.113 43.114z" fill="#78a91f"/></g><g><g><path d="m376.44 168.995c-4.143 0-7.5-3.358-7.5-7.5 0-5.751-4.679-10.43-10.43-10.43s-10.43 4.679-10.43 10.43c0 4.142-3.357 7.5-7.5 7.5s-7.5-3.358-7.5-7.5c0-14.022 11.407-25.43 25.43-25.43s25.43 11.408 25.43 25.43c0 4.142-3.357 7.5-7.5 7.5z" fill="#78a91f"/></g><g><path d="m459.264 168.995c-4.143 0-7.5-3.358-7.5-7.5 0-5.751-4.679-10.43-10.431-10.43-5.751 0-10.43 4.679-10.43 10.43 0 4.142-3.357 7.5-7.5 7.5s-7.5-3.358-7.5-7.5c0-14.022 11.407-25.43 25.43-25.43s25.431 11.408 25.431 25.43c0 4.142-3.358 7.5-7.5 7.5z" fill="#78a91f"/></g></g></g></g></svg>