<svg width="139" height="40" viewBox="0 0 139 40" fill="none" xmlns="http://www.w3.org/2000/svg">
<path d="M137.692 35.3868C137.692 37.5185 135.93 39.2451 133.749 39.2451H4.71713C2.53795 39.2451 0.769104 37.5185 0.769104 35.3868V4.61794C0.769104 2.4873 2.53795 0.754578 4.71713 0.754578H133.748C135.93 0.754578 137.691 2.4873 137.691 4.61794L137.692 35.3868Z" fill="black"/>
<path d="M133.333 0.801252C135.708 0.801252 137.64 2.685 137.64 5V35C137.64 37.315 135.708 39.1988 133.333 39.1988H5.12821C2.75385 39.1988 0.821795 37.315 0.821795 35V5C0.821795 2.685 2.75385 0.801252 5.12821 0.801252H133.333ZM133.333 2.11397e-06H5.12821C2.30897 2.11397e-06 0 2.25125 0 5V35C0 37.7487 2.30897 40 5.12821 40H133.333C136.153 40 138.462 37.7487 138.462 35V5C138.462 2.25125 136.153 2.11397e-06 133.333 2.11397e-06Z" fill="#A6A6A6"/>
<path d="M30.9004 19.784C30.8706 16.561 33.607 14.993 33.7322 14.92C32.1824 12.717 29.7804 12.416 28.9363 12.392C26.9188 12.185 24.9619 13.569 23.9342 13.569C22.886 13.569 21.3034 12.412 19.5978 12.446C17.4029 12.479 15.3496 13.718 14.2234 15.642C11.8993 19.565 13.6327 25.33 15.8593 28.501C16.9732 30.054 18.2747 31.788 19.9783 31.727C21.645 31.66 22.2675 30.691 24.2788 30.691C26.2716 30.691 26.8563 31.727 28.5937 31.688C30.3824 31.66 31.5086 30.128 32.5834 28.561C33.8706 26.781 34.3875 25.028 34.4081 24.938C34.366 24.924 30.9342 23.647 30.9004 19.784Z" fill="white"/>
<path d="M27.6183 10.306C28.5147 9.21301 29.1281 7.72601 28.9578 6.21701C27.6604 6.27301 26.0378 7.09201 25.1034 8.16101C24.2768 9.10301 23.5383 10.647 23.7291 12.099C25.1865 12.205 26.6829 11.382 27.6183 10.306Z" fill="white"/>
<path d="M55.0214 31.504H52.6922L51.4163 27.595H46.9814L45.766 31.504H43.4984L47.8922 18.196H50.606L55.0214 31.504ZM51.0317 25.955L49.8778 22.48C49.7558 22.125 49.5271 21.289 49.1896 19.973H49.1486C49.0142 20.539 48.7978 21.375 48.5004 22.48L47.3671 25.955H51.0317Z" fill="white"/>
<path d="M66.3209 26.5881C66.3209 28.2201 65.8686 29.5101 64.964 30.4571C64.1537 31.3001 63.1476 31.7211 61.9465 31.7211C60.6501 31.7211 59.7189 31.2671 59.1517 30.3591H59.1106V35.4141H56.924V25.0671C56.924 24.0411 56.8963 22.9881 56.843 21.9081H58.766L58.8881 23.4291H58.9291C59.6583 22.2831 60.765 21.7111 62.2501 21.7111C63.4112 21.7111 64.3804 22.1581 65.1558 23.0531C65.9332 23.9491 66.3209 25.1271 66.3209 26.5881ZM64.0932 26.6661C64.0932 25.7321 63.8778 24.9621 63.445 24.3561C62.9722 23.7241 62.3373 23.4081 61.5414 23.4081C61.0019 23.4081 60.5117 23.5841 60.0737 23.9311C59.6347 24.2811 59.3476 24.7381 59.2132 25.3041C59.1455 25.5681 59.1117 25.7841 59.1117 25.9541V27.5541C59.1117 28.2521 59.3312 28.8411 59.7701 29.3221C60.2091 29.8031 60.7794 30.0431 61.4809 30.0431C62.3045 30.0431 62.9455 29.7331 63.404 29.1151C63.8635 28.4961 64.0932 27.6801 64.0932 26.6661Z" fill="white"/>
<path d="M77.6406 26.5881C77.6406 28.2201 77.1883 29.5101 76.2827 30.4571C75.4734 31.3001 74.4673 31.7211 73.2663 31.7211C71.9698 31.7211 71.0386 31.2671 70.4724 30.3591H70.4314V35.4141H68.2447V25.0671C68.2447 24.0411 68.217 22.9881 68.1637 21.9081H70.0868L70.2088 23.4291H70.2498C70.9781 22.2831 72.0847 21.7111 73.5709 21.7111C74.7309 21.7111 75.7001 22.1581 76.4775 23.0531C77.2519 23.9491 77.6406 25.1271 77.6406 26.5881ZM75.4129 26.6661C75.4129 25.7321 75.1965 24.9621 74.7637 24.3561C74.2909 23.7241 73.6581 23.4081 72.8611 23.4081C72.3206 23.4081 71.8314 23.5841 71.3924 23.9311C70.9534 24.2811 70.6673 24.7381 70.5329 25.3041C70.4663 25.5681 70.4314 25.7841 70.4314 25.9541V27.5541C70.4314 28.2521 70.6509 28.8411 71.0878 29.3221C71.5268 29.8021 72.097 30.0431 72.8006 30.0431C73.6242 30.0431 74.2652 29.7331 74.7237 29.1151C75.1832 28.4961 75.4129 27.6801 75.4129 26.6661Z" fill="white"/>
<path d="M90.2975 27.7719C90.2975 28.9039 89.8944 29.8249 89.0852 30.5359C88.1959 31.3129 86.958 31.7009 85.3672 31.7009C83.8985 31.7009 82.7211 31.4249 81.8298 30.8719L82.3364 29.0949C83.2964 29.6609 84.3498 29.9449 85.4975 29.9449C86.3211 29.9449 86.9621 29.7629 87.4226 29.4009C87.8811 29.0389 88.1098 28.5529 88.1098 27.9469C88.1098 27.4069 87.9211 26.9519 87.5426 26.5829C87.1662 26.2139 86.5375 25.8709 85.6595 25.5539C83.2698 24.6849 82.0759 23.4119 82.0759 21.7379C82.0759 20.6439 82.4944 19.7469 83.3323 19.0489C84.1672 18.3499 85.2811 18.0009 86.6739 18.0009C87.9159 18.0009 88.9477 18.2119 89.7713 18.6329L89.2246 20.3709C88.4554 19.9629 87.5857 19.7589 86.6123 19.7589C85.8431 19.7589 85.2421 19.9439 84.8113 20.3119C84.4472 20.6409 84.2646 21.0419 84.2646 21.5169C84.2646 22.0429 84.4728 22.4779 84.8913 22.8199C85.2554 23.1359 85.917 23.4779 86.877 23.8469C88.0513 24.3079 88.9139 24.8469 89.4688 25.4649C90.0216 26.0809 90.2975 26.8519 90.2975 27.7719Z" fill="white"/>
<path d="M97.5269 23.5077H95.1167V28.1667C95.1167 29.3517 95.5413 29.9437 96.3926 29.9437C96.7833 29.9437 97.1074 29.9107 97.3638 29.8447L97.4244 31.4637C96.9936 31.6207 96.4264 31.6997 95.7238 31.6997C94.8603 31.6997 94.1854 31.4427 93.6982 30.9297C93.2131 30.4157 92.969 29.5537 92.969 28.3427V23.5057H91.5331V21.9057H92.969V20.1487L95.1167 19.5167V21.9057H97.5269V23.5077Z" fill="white"/>
<path d="M108.402 26.6269C108.402 28.1019 107.969 29.3129 107.105 30.2599C106.2 31.2349 104.998 31.7209 103.499 31.7209C102.055 31.7209 100.905 31.2539 100.048 30.3199C99.1905 29.3859 98.7618 28.2069 98.7618 26.7859C98.7618 25.2989 99.2028 24.0809 100.088 23.1339C100.971 22.1859 102.163 21.7119 103.661 21.7119C105.105 21.7119 106.267 22.1789 107.144 23.1139C107.983 24.0209 108.402 25.1919 108.402 26.6269ZM106.133 26.6959C106.133 25.8109 105.939 25.0519 105.546 24.4189C105.088 23.6529 104.433 23.2709 103.583 23.2709C102.704 23.2709 102.037 23.6539 101.578 24.4189C101.185 25.0529 100.992 25.8239 100.992 26.7359C100.992 27.6209 101.185 28.3799 101.578 29.0119C102.051 29.7779 102.712 30.1599 103.564 30.1599C104.399 30.1599 105.054 29.7699 105.527 28.9919C105.93 28.3469 106.133 27.5799 106.133 26.6959Z" fill="white"/>
<path d="M115.51 23.7831C115.293 23.7441 115.062 23.7241 114.82 23.7241C114.051 23.7241 113.456 24.0071 113.038 24.5741C112.674 25.0741 112.491 25.7061 112.491 26.4691V31.5041H110.306L110.326 24.9301C110.326 23.8241 110.298 22.8171 110.244 21.9091H112.149L112.229 23.7451H112.289C112.52 23.1141 112.884 22.6061 113.382 22.2251C113.87 21.8821 114.396 21.7111 114.963 21.7111C115.165 21.7111 115.348 21.7251 115.51 21.7501V23.7831Z" fill="white"/>
<path d="M125.289 26.2518C125.289 26.6338 125.264 26.9558 125.209 27.2188H118.649C118.675 28.1668 118.992 28.8918 119.601 29.3918C120.154 29.8388 120.869 30.0628 121.747 30.0628C122.718 30.0628 123.604 29.9118 124.401 29.6088L124.744 31.0888C123.812 31.4848 122.713 31.6818 121.444 31.6818C119.918 31.6818 118.72 31.2438 117.848 30.3688C116.979 29.4938 116.543 28.3188 116.543 26.8448C116.543 25.3978 116.948 24.1928 117.759 23.2318C118.608 22.2058 119.756 21.6928 121.2 21.6928C122.618 21.6928 123.692 22.2058 124.422 23.2318C124.999 24.0468 125.289 25.0548 125.289 26.2518ZM123.204 25.6988C123.218 25.0668 123.076 24.5208 122.78 24.0598C122.401 23.4668 121.82 23.1708 121.037 23.1708C120.322 23.1708 119.741 23.4598 119.296 24.0398C118.932 24.5008 118.716 25.0538 118.649 25.6978H123.204V25.6988Z" fill="white"/>
<path d="M50.3079 10.009C50.3079 11.186 49.9458 12.072 49.2228 12.667C48.553 13.216 47.6012 13.491 46.3684 13.491C45.7571 13.491 45.234 13.465 44.7961 13.413V6.98198C45.3674 6.89198 45.9827 6.84598 46.6474 6.84598C47.8217 6.84598 48.7069 7.09498 49.3038 7.59298C49.9725 8.15598 50.3079 8.96098 50.3079 10.009ZM49.1745 10.038C49.1745 9.27498 48.9674 8.68998 48.553 8.28198C48.1387 7.87498 47.5335 7.67098 46.7366 7.67098C46.3981 7.67098 46.1099 7.69298 45.871 7.73898V12.628C46.0033 12.648 46.2453 12.657 46.5971 12.657C47.4197 12.657 48.0545 12.434 48.5017 11.988C48.9489 11.542 49.1745 10.892 49.1745 10.038Z" fill="white"/>
<path d="M56.3172 11.0371C56.3172 11.7621 56.1049 12.3561 55.6803 12.8221C55.2352 13.3011 54.6454 13.5401 53.909 13.5401C53.1993 13.5401 52.6342 13.3111 52.2126 12.8511C51.7921 12.3921 51.5818 11.8131 51.5818 11.1151C51.5818 10.3851 51.7983 9.78608 52.2331 9.32108C52.668 8.85608 53.2526 8.62308 53.989 8.62308C54.6988 8.62308 55.269 8.85208 55.7008 9.31108C56.1111 9.75708 56.3172 10.3331 56.3172 11.0371ZM55.2024 11.0711C55.2024 10.6361 55.106 10.2631 54.9142 9.95208C54.6885 9.57608 54.3675 9.38808 53.9501 9.38808C53.5183 9.38808 53.1901 9.57608 52.9644 9.95208C52.7716 10.2631 52.6762 10.6421 52.6762 11.0901C52.6762 11.5251 52.7726 11.8981 52.9644 12.2091C53.1972 12.5851 53.5213 12.7731 53.9398 12.7731C54.3501 12.7731 54.6721 12.5821 54.9039 12.1991C55.1029 11.8821 55.2024 11.5061 55.2024 11.0711Z" fill="white"/>
<path d="M64.3746 8.71915L62.8618 13.4331H61.8771L61.2505 11.3861C61.0915 10.8751 60.9623 10.3671 60.8618 9.86315H60.8423C60.7489 10.3811 60.6197 10.8881 60.4535 11.3861L59.7879 13.4331H58.792L57.3694 8.71915H58.4741L59.0207 10.9601C59.153 11.4901 59.2618 11.9951 59.3489 12.4731H59.3684C59.4484 12.0791 59.5807 11.5771 59.7674 10.9701L60.4535 8.72015H61.3294L61.9869 10.9221C62.1459 11.4591 62.2751 11.9761 62.3746 12.4741H62.4043C62.4771 11.9891 62.5869 11.4721 62.7325 10.9221L63.3192 8.72015H64.3746V8.71915Z" fill="white"/>
<path d="M69.9462 13.4329H68.8713V10.7329C68.8713 9.9009 68.5472 9.4849 67.897 9.4849C67.578 9.4849 67.3206 9.5989 67.1206 9.8279C66.9226 10.0569 66.8221 10.3269 66.8221 10.6359V13.4319H65.7472V10.0659C65.7472 9.6519 65.7339 9.2029 65.7083 8.7169H66.6529L66.7031 9.4539H66.7329C66.858 9.2249 67.0447 9.0359 67.2898 8.8849C67.5811 8.7089 67.9072 8.6199 68.2641 8.6199C68.7154 8.6199 69.0908 8.7619 69.3893 9.0469C69.7605 9.3959 69.9462 9.9169 69.9462 10.6089V13.4329Z" fill="white"/>
<path d="M72.9107 13.4332H71.8369V6.55618H72.9107V13.4332Z" fill="white"/>
<path d="M79.2391 11.0371C79.2391 11.7621 79.0267 12.3561 78.6021 12.8221C78.157 13.3011 77.5662 13.5401 76.8308 13.5401C76.1201 13.5401 75.5549 13.3111 75.1344 12.8511C74.7139 12.3921 74.5037 11.8131 74.5037 11.1151C74.5037 10.3851 74.7201 9.78608 75.1549 9.32108C75.5898 8.85608 76.1744 8.62308 76.9098 8.62308C77.6206 8.62308 78.1898 8.85208 78.6226 9.31108C79.0329 9.75708 79.2391 10.3331 79.2391 11.0371ZM78.1231 11.0711C78.1231 10.6361 78.0267 10.2631 77.8349 9.95208C77.6103 9.57608 77.2883 9.38808 76.8719 9.38808C76.439 9.38808 76.1108 9.57608 75.8862 9.95208C75.6934 10.2631 75.598 10.6421 75.598 11.0901C75.598 11.5251 75.6944 11.8981 75.8862 12.2091C76.119 12.5851 76.4432 12.7731 76.8616 12.7731C77.2719 12.7731 77.5929 12.5821 77.8247 12.1991C78.0247 11.8821 78.1231 11.5061 78.1231 11.0711Z" fill="white"/>
<path d="M84.4415 13.4331H83.4764L83.3964 12.8901H83.3666C83.0364 13.3231 82.5656 13.5401 81.9543 13.5401C81.4979 13.5401 81.1287 13.3971 80.8508 13.1131C80.5984 12.8551 80.4723 12.5341 80.4723 12.1531C80.4723 11.5771 80.7184 11.1381 81.2138 10.8341C81.7082 10.5301 82.4036 10.3811 83.299 10.3881V10.3001C83.299 9.67908 82.9646 9.36908 82.2949 9.36908C81.8179 9.36908 81.3974 9.48608 81.0343 9.71808L80.8159 9.03008C81.2651 8.75908 81.82 8.62308 82.4743 8.62308C83.7379 8.62308 84.3718 9.27308 84.3718 10.5731V12.3091C84.3718 12.7801 84.3954 13.1551 84.4415 13.4331ZM83.3256 11.8131V11.0861C82.14 11.0661 81.5472 11.3831 81.5472 12.0361C81.5472 12.2821 81.6149 12.4661 81.7533 12.5891C81.8918 12.7121 82.0682 12.7731 82.2784 12.7731C82.5143 12.7731 82.7349 12.7001 82.9359 12.5551C83.1379 12.4091 83.262 12.2241 83.3082 11.9971C83.3195 11.9461 83.3256 11.8841 83.3256 11.8131Z" fill="white"/>
<path d="M90.5485 13.4332H89.5946L89.5444 12.6762H89.5146C89.21 13.2522 88.691 13.5402 87.9618 13.5402C87.3793 13.5402 86.8941 13.3172 86.5095 12.8712C86.1249 12.4252 85.9331 11.8462 85.9331 11.1352C85.9331 10.3722 86.1413 9.75418 86.5598 9.28218C86.9649 8.84218 87.4613 8.62218 88.0521 8.62218C88.7013 8.62218 89.1557 8.83518 89.4141 9.26218H89.4346V6.55618H90.5105V12.1632C90.5105 12.6222 90.5228 13.0452 90.5485 13.4332ZM89.4346 11.4452V10.6592C89.4346 10.5232 89.4244 10.4132 89.4049 10.3292C89.3444 10.0772 89.2141 9.86518 89.0162 9.69418C88.8162 9.52318 88.5751 9.43718 88.2972 9.43718C87.8962 9.43718 87.5823 9.59218 87.3516 9.90318C87.1228 10.2142 87.0069 10.6112 87.0069 11.0962C87.0069 11.5622 87.1167 11.9402 87.3372 12.2312C87.57 12.5412 87.8839 12.6962 88.2767 12.6962C88.6295 12.6962 88.9116 12.5672 89.1259 12.3082C89.3331 12.0692 89.4346 11.7812 89.4346 11.4452Z" fill="white"/>
<path d="M99.7421 11.0371C99.7421 11.7621 99.5298 12.3561 99.1052 12.8221C98.66 13.3011 98.0713 13.5401 97.3339 13.5401C96.6252 13.5401 96.0601 13.3111 95.6375 12.8511C95.217 12.3921 95.0067 11.8131 95.0067 11.1151C95.0067 10.3851 95.2231 9.78608 95.658 9.32108C96.0929 8.85608 96.6775 8.62308 97.4149 8.62308C98.1236 8.62308 98.6949 8.85208 99.1257 9.31108C99.5359 9.75708 99.7421 10.3331 99.7421 11.0371ZM98.6283 11.0711C98.6283 10.6361 98.5318 10.2631 98.34 9.95208C98.1134 9.57608 97.7934 9.38808 97.3749 9.38808C96.9442 9.38808 96.6159 9.57608 96.3893 9.95208C96.1965 10.2631 96.1011 10.6421 96.1011 11.0901C96.1011 11.5251 96.1975 11.8981 96.3893 12.2091C96.6221 12.5851 96.9462 12.7731 97.3647 12.7731C97.7749 12.7731 98.098 12.5821 98.3298 12.1991C98.5277 11.8821 98.6283 11.5061 98.6283 11.0711Z" fill="white"/>
<path d="M105.521 13.4329H104.447V10.7329C104.447 9.9009 104.123 9.4849 103.472 9.4849C103.153 9.4849 102.895 9.5989 102.696 9.8279C102.498 10.0569 102.398 10.3269 102.398 10.6359V13.4319H101.322V10.0659C101.322 9.6519 101.31 9.2029 101.284 8.7169H102.228L102.278 9.4539H102.308C102.434 9.2249 102.621 9.0359 102.865 8.8849C103.157 8.7089 103.482 8.6199 103.84 8.6199C104.29 8.6199 104.666 8.7619 104.964 9.0469C105.336 9.3959 105.521 9.9169 105.521 10.6089V13.4329Z" fill="white"/>
<path d="M112.754 9.50414H111.571V11.7941C111.571 12.3761 111.781 12.6671 112.197 12.6671C112.39 12.6671 112.55 12.6511 112.676 12.6181L112.704 13.4131C112.492 13.4911 112.213 13.5301 111.869 13.5301C111.445 13.5301 111.114 13.4041 110.875 13.1521C110.635 12.9001 110.516 12.4761 110.516 11.8811V9.50414H109.81V8.71914H110.516V7.85514L111.57 7.54514V8.71814H112.753V9.50414H112.754Z" fill="white"/>
<path d="M118.445 13.4332H117.369V10.7532C117.369 9.90818 117.045 9.48518 116.396 9.48518C115.897 9.48518 115.557 9.73018 115.37 10.2202C115.338 10.3232 115.32 10.4492 115.32 10.5972V13.4322H114.246V6.55618H115.32V9.39718H115.34C115.679 8.88018 116.164 8.62218 116.793 8.62218C117.238 8.62218 117.606 8.76418 117.898 9.04918C118.262 9.40418 118.445 9.93218 118.445 10.6302V13.4332Z" fill="white"/>
<path d="M124.315 10.8528C124.315 11.0408 124.3 11.1988 124.275 11.3278H121.051C121.065 11.7938 121.219 12.1488 121.518 12.3948C121.791 12.6148 122.142 12.7248 122.573 12.7248C123.05 12.7248 123.485 12.6508 123.877 12.5018L124.045 13.2298C123.586 13.4238 123.047 13.5208 122.422 13.5208C121.674 13.5208 121.084 13.3058 120.657 12.8758C120.229 12.4458 120.016 11.8688 120.016 11.1448C120.016 10.4338 120.214 9.84183 120.613 9.36983C121.03 8.86583 121.593 8.61383 122.303 8.61383C122.999 8.61383 123.527 8.86583 123.884 9.36983C124.172 9.76983 124.315 10.2648 124.315 10.8528ZM123.289 10.5818C123.297 10.2708 123.226 10.0028 123.081 9.77683C122.894 9.48583 122.61 9.33983 122.225 9.33983C121.875 9.33983 121.589 9.48183 121.37 9.76683C121.192 9.99383 121.086 10.2648 121.051 10.5818H123.289Z" fill="white"/>
</svg>
